<!DOCTYPE svg PUBLIC "-//W3C//DTD SVG 1.1//EN" "http://www.w3.org/Graphics/SVG/1.1/DTD/svg11.dtd">
<!-- Uploaded to: SVG Repo, www.svgrepo.com, Transformed by: SVG Repo Mixer Tools -->
<svg fill="#000000" height="256px" width="256px" version="1.1" id="Capa_1" xmlns="http://www.w3.org/2000/svg" xmlns:xlink="http://www.w3.org/1999/xlink" viewBox="0 0 511.00 511.00" xml:space="preserve" stroke="#000000" stroke-width="0.00511">
<g id="SVGRepo_bgCarrier" stroke-width="0"/>
<g id="SVGRepo_tracerCarrier" stroke-linecap="round" stroke-linejoin="round" stroke="#CCCCCC" stroke-width="12.264"/>
<g id="SVGRepo_iconCarrier"> <g> <path d="M255.5,0C238.131,0,224,14.131,224,31.5v88c0,0.156,0.005,0.312,0.015,0.468l24,384c0.247,3.953,3.525,7.032,7.485,7.032 s7.238-3.079,7.485-7.032l24-384c0.01-0.156,0.015-0.312,0.015-0.468v-88C287,14.131,272.869,0,255.5,0z M272,119.266l-16.5,264 l-16.5-264V31.5c0-9.098,7.402-16.5,16.5-16.5S272,22.402,272,31.5V119.266z"/> <path d="M255.5,40c-4.142,0-7.5,3.358-7.5,7.5v56c0,4.142,3.358,7.5,7.5,7.5s7.5-3.358,7.5-7.5v-56C263,43.358,259.642,40,255.5,40 z"/> </g> </g>
</svg>